<?xml version="1.0" encoding="UTF-8"?>
<svg width="117px" height="39px" viewBox="0 0 117 39" version="1.1" xmlns="http://www.w3.org/2000/svg" xmlns:xlink="http://www.w3.org/1999/xlink">
    <title>438DDB2C-3584-4483-BA44-F0CE71890DED</title>
    <defs>
        <polygon id="path-1" points="0 0.140143012 13.138572 0.140143012 13.138572 26.2547476 0 26.2547476"></polygon>
        <polygon id="path-3" points="0.10564247 0.199304442 20.8117313 0.199304442 20.8117313 26.3488624 0.10564247 26.3488624"></polygon>
    </defs>
    <g id="New-flyhub" stroke="none" stroke-width="1" fill="none" fill-rule="evenodd">
        <g id="01.-Flyhub-Website-V1.0" transform="translate(-45.000000, -30.000000)">
            <g id="01-Navigation---new" transform="translate(45.000000, 30.000000)">
                <g id="01-Navigation">
                    <g id="flyhub-n-color">
                        <path d="M110.902074,11.6009512 C114.096873,11.6009512 116.702529,8.99529577 116.702529,5.80049621 C116.702529,2.60569664 114.096873,4.11700975e-05 110.902074,4.11700975e-05 C107.707274,4.11700975e-05 105.101619,2.60569664 105.101619,5.80049621 C105.101619,8.99529577 107.707274,11.6009512 110.902074,11.6009512" id="Fill-1" fill="#F25E3A"></path>
                        <g id="Group-5" transform="translate(0.000000, 2.684579)">
                            <mask id="mask-2" fill="white">
                                <use xlink:href="#path-1"></use>
                            </mask>
                            <g id="Clip-4"></g>
                            <path d="M13.138572,0.331583965 C12.2390054,0.209720477 11.3801972,0.140143012 10.5621473,0.140143012 C8.73954713,0.140143012 7.13803034,0.464975081 5.82635103,1.15580932 C3.45289491,2.4152026 2.04281907,4.88129144 2.02511593,8.85091224 L-4.11700975e-05,8.85091224 L-4.11700975e-05,13.8184962 L2.02511593,13.8184962 L2.02511593,26.2547476 L8.74572264,26.2547476 L8.74572264,13.8184962 L13.138572,13.8184962 L13.138572,8.85091224 L8.74572264,8.85091224 C8.75107476,6.97026219 9.05861538,5.97806284 9.95818202,5.51983965 C10.4225807,5.28187649 11.037662,5.18883207 11.8561235,5.18883207 C12.2390054,5.18883207 12.6626457,5.20653521 13.138572,5.24688191 L13.138572,0.331583965 Z" id="Fill-3" fill="#1C174F" mask="url(#mask-2)"></path>
                        </g>
                        <path d="M22.1911766,3.01616251 L15.4713933,3.01616251 L15.4713933,21.8597161 C15.4713933,24.9351224 16.6492698,26.8911138 18.5587389,28.0167042 C20.0268646,28.8989794 21.935922,29.2526306 24.071415,29.2526306 C24.6058028,29.2526306 25.1570704,29.2295753 25.7141018,29.1892286 L25.7141018,24.2039415 C24.652325,24.2331723 23.7408191,24.1516555 23.1142102,23.7864767 C22.527948,23.4381777 22.1911766,22.8461517 22.1911766,21.8597161 L22.1911766,3.01616251 Z" id="Fill-6" fill="#1C174F"></path>
                        <g id="Group-10" transform="translate(23.466956, 11.330299)">
                            <mask id="mask-4" fill="white">
                                <use xlink:href="#path-3"></use>
                            </mask>
                            <g id="Clip-9"></g>
                            <path d="M20.8117313,0.199304442 L13.9927281,0.199304442 L10.4298678,10.3320888 L6.93040953,0.199304442 L0.10564247,0.199304442 L7.54013868,18.5562275 C7.22806934,19.4496186 6.77931528,20.2915471 5.93203467,20.777766 C5.1835623,21.1960542 4.06908776,21.369792 2.24689924,21.369792 L2.24689924,26.3489036 C4.42932611,26.3489036 6.47753846,26.2097486 8.24167714,25.4435731 C9.98852438,24.6778093 11.4570618,23.2500303 12.4953716,20.7431831 L20.8117313,0.199304442 Z" id="Fill-8" fill="#1C174F" mask="url(#mask-4)"></path>
                        </g>
                        <path d="M52.3800152,3.01616251 L45.6602319,3.01616251 L45.6598202,28.9393261 L52.3800152,28.9393261 L52.3800152,18.3425547 C53.569831,16.5030748 54.4051723,16.4392611 55.0260173,16.4392611 C56.1870141,16.4392611 57.0458223,17.0831614 57.0458223,19.3409296 L57.0458223,28.9393261 L63.7660173,28.9393261 L63.7660173,17.8958592 C63.7660173,13.0266717 60.266559,11.0768559 57.0804052,11.0768559 C55.0321928,11.0768559 53.569831,12.0402362 52.3800152,13.2238765 L52.3800152,3.01616251 Z" id="Fill-11" fill="#1C174F"></path>
                        <path d="M84.5636685,28.9338093 L84.5636685,11.5295623 L77.8434735,11.5295623 L77.8434735,22.4281105 C76.5840802,23.9427584 75.6787497,24.0008082 74.994091,24.0008082 C73.6301257,24.0008082 72.6202232,23.3507324 72.6202232,21.0991398 L72.6202232,11.5295623 L65.9004399,11.5295623 L65.9004399,22.5442102 C65.9004399,27.4191614 69.6835601,29.3862687 73.1253803,29.3862687 C75.4350228,29.3862687 77.0542427,28.3417833 78.3774496,27.08239 L78.6615233,28.9338093 L84.5636685,28.9338093 Z" id="Fill-13" fill="#1C174F"></path>
                        <path d="M93.6162319,18.3311094 C94.1617356,17.0832438 95.2935016,16.4681625 96.6747584,16.4681625 C98.6591571,16.4681625 100.098464,17.6229837 100.098464,20.2348147 C100.098464,22.8227671 98.7056793,24.0006436 96.6747584,24.0006436 C95.2935016,24.0006436 94.1617356,23.3855623 93.6162319,22.1381083 L93.6162319,18.3311094 Z M93.6162319,3.01624485 L86.8960368,3.01624485 L86.8960368,28.9394085 L92.798182,28.9394085 L93.0995471,26.9949447 C94.2778353,28.4227237 96.4540867,29.2819437 98.7349101,29.2819437 C102.623014,29.2819437 106.807131,26.7746847 106.807131,20.205584 C106.807131,14.0424204 102.506914,11.1522795 98.47348,11.1522795 C96.6801105,11.1522795 94.9159718,11.7270141 93.6162319,12.8587801 L93.6162319,3.01624485 Z" id="Fill-15" fill="#1C174F"></path>
                        <polygon id="Fill-17" fill="#1C174F" points="109.436995 27.4164442 108.744102 27.4164442 108.744102 29.2744507 108.34187 29.2744507 108.34187 27.4164442 107.645684 27.4164442 107.645684 27.1109621 109.436995 27.1109621"></polygon>
                        <polygon id="Fill-19" fill="#1C174F" points="112.061177 27.1109209 112.061177 29.2744095 111.682823 29.2744095 111.682823 27.7251788 110.935586 28.8474756 110.884124 28.8474756 110.131122 27.7251788 110.131122 29.2744095 109.752769 29.2744095 109.752769 27.1109209 110.131122 27.1109209 110.90512 28.2517443 111.682823 27.1109209"></polygon>
                    </g>
                </g>
            </g>
        </g>
    </g>
</svg>