<?xml version="1.0" encoding="UTF-8"?>
<svg width="28px" height="20px" viewBox="0 0 28 20" version="1.1" xmlns="http://www.w3.org/2000/svg" xmlns:xlink="http://www.w3.org/1999/xlink">
    <!-- Generator: sketchtool 61.2 (101010) - https://sketch.com -->
    <title>20C4BE5F-597A-4C35-904C-018A95503C5F</title>
    <desc>Created with sketchtool.</desc>
    <defs>
        <linearGradient x1="50%" y1="0%" x2="50%" y2="100%" id="linearGradient-1">
            <stop stop-color="#FFFFFF" offset="0%"></stop>
            <stop stop-color="#F0F0F0" offset="100%"></stop>
        </linearGradient>
        <rect id="path-2" x="0" y="0" width="28" height="20" rx="2"></rect>
    </defs>
    <g id="New-flyhub" stroke="none" stroke-width="1" fill="none" fill-rule="evenodd">
        <g id="01.-Flyhub-Website-V1.0" transform="translate(-322.000000, -4954.000000)">
            <g id="09-Footer" transform="translate(258.000000, 4595.000000)">
                <g id="Group-14" transform="translate(3.000000, 282.000000)">
                    <g id="Group-28">
                        <g id="Group-34" transform="translate(61.000000, 71.000000)">
                            <g id="Group-17">
                                <g id="SG" transform="translate(0.000000, 6.000000)">
                                    <mask id="mask-3" fill="white">
                                        <use xlink:href="#path-2"></use>
                                    </mask>
                                    <rect stroke="#F5F5F5" stroke-width="0.5" x="0.25" y="0.25" width="27.5" height="19.5" rx="2"></rect>
                                    <rect id="Rectangle-2" fill="#E12237" mask="url(#mask-3)" x="0" y="0" width="28" height="10.6666667"></rect>
                                    <path d="M6.66666667,1.33333333 C7.61178022,1.33333333 8.48033641,1.66111433 9.16485679,2.20919786 C8.80218128,2.07392284 8.40972344,2 8,2 C6.15905083,2 4.66666667,3.49238417 4.66666667,5.33333333 C4.66666667,7.1742825 6.15905083,8.66666667 8,8.66666667 C8.40972344,8.66666667 8.80218128,8.59274382 9.16476382,8.45750783 C8.48033641,9.00555234 7.61178022,9.33333333 6.66666667,9.33333333 C4.45752767,9.33333333 2.66666667,7.54247233 2.66666667,5.33333333 C2.66666667,3.12419433 4.45752767,1.33333333 6.66666667,1.33333333 Z M8.66666667,6.66666667 C9.0348565,6.66666667 9.33333333,6.9651435 9.33333333,7.33333333 C9.33333333,7.70152317 9.0348565,8 8.66666667,8 C8.29847683,8 8,7.70152317 8,7.33333333 C8,6.9651435 8.29847683,6.66666667 8.66666667,6.66666667 Z M11.3333333,6.66666667 C11.7015232,6.66666667 12,6.9651435 12,7.33333333 C12,7.70152317 11.7015232,8 11.3333333,8 C10.9651435,8 10.6666667,7.70152317 10.6666667,7.33333333 C10.6666667,6.9651435 10.9651435,6.66666667 11.3333333,6.66666667 Z M7.33333333,4 C7.70152317,4 8,4.29847683 8,4.66666667 C8,5.0348565 7.70152317,5.33333333 7.33333333,5.33333333 C6.9651435,5.33333333 6.66666667,5.0348565 6.66666667,4.66666667 C6.66666667,4.29847683 6.9651435,4 7.33333333,4 Z M12.6666667,4 C13.0348565,4 13.3333333,4.29847683 13.3333333,4.66666667 C13.3333333,5.0348565 13.0348565,5.33333333 12.6666667,5.33333333 C12.2984768,5.33333333 12,5.0348565 12,4.66666667 C12,4.29847683 12.2984768,4 12.6666667,4 Z M10,2 C10.3681898,2 10.6666667,2.29847683 10.6666667,2.66666667 C10.6666667,3.0348565 10.3681898,3.33333333 10,3.33333333 C9.63181017,3.33333333 9.33333333,3.0348565 9.33333333,2.66666667 C9.33333333,2.29847683 9.63181017,2 10,2 Z" id="Oval-12" fill="#FFFFFF" mask="url(#mask-3)"></path>
                                </g>
                            </g>
                        </g>
                    </g>
                </g>
            </g>
        </g>
    </g>
</svg>